# xmcd CD database file
#
# Track frame offsets:
#	187
#	40755
#	110662
#	162552
#
# Disc length: 2947 seconds
#
# Revision: 7
# Processed by: cddbd v1.5.1PL0 Copyright (c) Steve Scherf et al.
# Submitted via: CDex 1.51
#
DISCID=2f0b8104
DTITLE=Keith Jarrett - Changeless
DYEAR=1989
DGENRE=Jazz
TTITLE0=Dancing
TTITLE1=Endless
TTITLE2=Lifeline
TTITLE3=Ecstacy
EXTD=Keith Jarrett: piano\nGary Peacock: bass\nJack DeJohnette: Drums\n\nDigital recordings taken from concerts in Denver\n(october 11, 1987), Lexington (october 9, 1987), \nHouston (October 12. 1987).\nEngineer: Tom McKenney.\nDigitally remixed by Jan E
EXTD=rik Kingshaug,Rainbow\nStudio, Oslo.\nDesign: Dieter Rehm.\nProduced by Manfred Eicher.\n\n(c) 1989 ECM Record GmbH. YEAR: 1989
EXTT0=
EXTT1=
EXTT2=
EXTT3=
PLAYORDER=
